HIERARCHY
ROOT Hips
{
  OFFSET -32.5998 29.0326 120.673
  CHANNELS 6 Xposition Yposition Zposition Zrotation Xrotation Yrotation
  JOINT LeftUpLeg
  {
    OFFSET 8.64259 1.95398 -2.38835
    CHANNELS 3 Zrotation Xrotation Yrotation
    JOINT LeftLeg
    {
      OFFSET 43.7702 0 0
      CHANNELS 3 Zrotation Xrotation Yrotation
      JOINT LeftFoot
      {
        OFFSET 40.6238 0 0
        CHANNELS 3 Zrotation Xrotation Yrotation
        JOINT LeftToeBase
        {
          OFFSET 12.7242 0 0
          CHANNELS 3 Zrotation Xrotation Yrotation
          End Site
          {
            OFFSET 0 0 0
          }
        }
      }
    }
  }
  JOINT RightUpLeg
  {
    OFFSET -8.2249 1.95398 -2.59336
    CHANNELS 3 Zrotation Xrotation Yrotation
    JOINT RightLeg
    {
      OFFSET 43.5653 0 0
      CHANNELS 3 Zrotation Xrotation Yrotation
      JOINT RightFoot
      {
        OFFSET 40.6238 0 0
        CHANNELS 3 Zrotation Xrotation Yrotation
        JOINT RightToeBase
        {
          OFFSET 12.7242 0 0
          CHANNELS 3 Zrotation Xrotation Yrotation
          End Site
          {
            OFFSET 0 0 0
          }
        }
      }
    }
  }
  JOINT Spine
  {
    OFFSET 0.165834 0.87714 6.61349
    CHANNELS 3 Zrotation Xrotation Yrotation
    JOINT Spine1
    {
      OFFSET 7.38963 1.71661e-005 0
      CHANNELS 3 Zrotation Xrotation Yrotation
      JOINT Spine2
      {
        OFFSET 11.9445 1.14441e-005 0
        CHANNELS 3 Zrotation Xrotation Yrotation
        JOINT Spine3
        {
          OFFSET 14.7254 4.19617e-005 0
          CHANNELS 3 Zrotation Xrotation Yrotation
          JOINT Spine4
          {
            OFFSET 10.9679 0 0
            CHANNELS 3 Zrotation Xrotation Yrotation
            JOINT RightShoulder
            {
              OFFSET 2.46616 -1.6653 3.69651
              CHANNELS 3 Zrotation Xrotation Yrotation
              JOINT RightArm
              {
                OFFSET 13.0012 0 0
                CHANNELS 3 Zrotation Xrotation Yrotation
                JOINT RightForeArm
                {
                  OFFSET 28.7848 1.62311e-005 0
                  CHANNELS 3 Zrotation Xrotation Yrotation
                  JOINT RightHand
                  {
                    OFFSET 26.5688 1.62095e-005 0
                    CHANNELS 3 Zrotation Xrotation Yrotation
                    End Site
                    {
                      OFFSET 0 0 0
                    }
                  }
                }
              }
            }
            JOINT LeftShoulder
            {
              OFFSET 2.38034 -1.29275 -3.7523
              CHANNELS 3 Zrotation Xrotation Yrotation
              JOINT LeftArm
              {
                OFFSET 16.3182 6.07031e-005 0
                CHANNELS 3 Zrotation Xrotation Yrotation
                JOINT LeftForeArm
                {
                  OFFSET 27.0901 0 0
                  CHANNELS 3 Zrotation Xrotation Yrotation
                  JOINT LeftHand
                  {
                    OFFSET 24.5451 1.51738e-005 0
                    CHANNELS 3 Zrotation Xrotation Yrotation
                    End Site
                    {
                      OFFSET 0 0 0
                    }
                  }
                }
              }
            }
            JOINT Neck
            {
              OFFSET 5.0226 -0.0266342 0
              CHANNELS 3 Zrotation Xrotation Yrotation
              JOINT Head
              {
                OFFSET 6.69364 2.86102e-005 0
                CHANNELS 3 Zrotation Xrotation Yrotation
                End Site
                {
                  OFFSET 0 0 0
                }
              }
            }
          }
        }
      }
    }
  }
}
MOTION
Frames:	15
Frame Time:	0.0416667
-325.448 96.6124 305.238 -103.506 -44.6812 -102.139 -174.695 -6.27343 88.2105 -10.9666 18.0535 0.572566 67.9117 5.13641 0.110482 12.1165 -11.7536 7.18962 172.118 -4.76241 86.9273 -16.4008 -13.7265 -2.08076 67.4836 -4.30766 -0.622547 27.6445 -0.591392 4.33684 -0.299517 8.90525 -89.6824 9.06433 -0.455497 0.660755 -2.60671 -0.425971 0.680151 -25.1417 -0.633033 0.49331 -5.12904 -0.632999 0.493319 82.0378 -26.4737 -124.288 36.6449 -9.53963 -9.86704 -11.321 -8.3475 -18.9564 -11.835 -0.0512048 -4.84863 -83.7484 -44.055 87.443 -24.4165 18.0722 -16.5768 4.25504 -19.3083 -8.39785 6.43169 0.0497969 -2.54696 8.25454 20.1227 3.69395 -8.89602 18.7723 5.0668 
-325.489 96.6272 305.242 -103.451 -44.7654 -102.066 -174.637 -6.24728 88.2887 -11.0052 17.8887 0.544865 68.338 5.33194 -0.31185 11.5804 -11.5403 6.39257 172.129 -4.8845 86.9961 -16.1568 -13.8068 -2.05615 67.4706 -4.35002 -0.812252 27.3953 -0.481027 4.30129 -0.269306 8.88821 -89.7032 9.09822 -0.404396 0.61627 -2.57282 -0.376897 0.63347 -25.1077 -0.570912 0.466248 -5.09509 -0.570924 0.466244 82.3765 -26.5991 -123.546 36.6873 -9.8988 -9.71451 -11.2493 -8.218 -19.1899 -11.9262 -0.0314223 -5.05065 -83.7956 -44.1665 87.3802 -23.7004 18.8589 -17.0561 3.9412 -20.4026 -7.75008 6.63892 0.0233603 -2.92577 8.47214 19.9429 3.69837 -9.43829 18.5564 4.9098 
-325.614 96.6206 305.299 -103.378 -44.9163 -101.965 -174.537 -6.27197 88.4476 -10.8802 18.2255 0.487994 68.2598 5.32509 -0.0895632 12.364 -10.8891 6.05291 172.231 -5.12121 87.1404 -15.7653 -13.6173 -2.08705 67.4342 -4.31709 -0.818979 27.4366 -0.494672 4.28888 -0.161848 8.86659 -89.7854 9.14095 -0.226777 0.441165 -2.53006 -0.207142 0.450714 -25.0649 -0.348886 0.352615 -5.05229 -0.348889 0.35261 83.8542 -26.3036 -120.816 37.4466 -10.6909 -9.68355 -11.4017 -8.62826 -19.8293 -11.8599 -0.0493638 -4.86797 -84.4257 -45.3847 86.5248 -22.39 19.4824 -17.2232 3.82979 -20.0792 -7.95682 6.63882 0.0355154 -2.7701 3.61548 17.6495 6.58928 0.0373446 16.5863 4.85321 
-325.848 96.6354 305.427 -103.271 -45.2395 -101.75 -174.332 -6.26669 88.7902 -10.8191 18.8247 0.404173 68.2373 5.31781 -0.0356998 12.7981 -10.7719 6.24382 172.296 -5.45549 87.3878 -15.2517 -13.3884 -1.99774 67.3329 -4.29775 -1.05552 27.3531 -0.513948 4.49871 -0.013592 8.78109 -89.8673 9.31154 0.0325265 0.260543 -2.35942 0.0439583 0.258855 -24.8944 -0.0472802 0.258279 -4.88173 -0.0472759 0.258272 85.7112 -26.029 -117.242 39.1096 -11.2305 -9.30771 -11.7525 -9.44651 -20.48 -12.0668 -0.068662 -4.68089 -85.4369 -46.0118 85.0083 -21.4475 20.8619 -17.4404 3.85185 -19.7433 -7.24526 5.98251 -0.00645527 -3.21807 -5.89442 13.0651 8.97171 18.1323 13.4387 7.3848 
-326.155 96.6441 305.57 -103.12 -45.6523 -101.394 -174.038 -6.18789 89.3067 -10.9243 19.3344 0.319173 68.627 5.49839 -0.172759 12.1877 -11.1504 6.31089 172.511 -6.02052 87.8345 -14.339 -12.7769 -1.94103 67.2682 -4.30828 -1.01201 27.1715 -0.411242 4.38525 0.152471 8.64194 -89.9545 9.58993 0.324376 0.0652196 -2.08099 0.326945 0.0508607 -24.6164 0.28977 0.159686 -4.60375 0.289786 0.159685 87.6623 -25.921 -113.3 40.8526 -12.1937 -8.36779 -12.1439 -10.2558 -21.4209 -12.1829 -0.0948636 -4.42462 -86.304 -46.0246 83.642 -21.5142 21.9618 -17.1288 4.12345 -18.5384 -6.93858 5.14037 -0.0510322 -3.76789 -7.48022 11.8251 8.76091 19.3357 12.5053 7.62749 
-326.547 96.684 305.716 -102.955 -46.0267 -101.025 -173.721 -6.22309 89.8813 -10.8319 19.9445 0.237635 68.6203 5.41595 -0.339286 12.5834 -11.0154 6.44144 172.748 -6.65688 88.3318 -13.369 -12.2646 -1.89258 67.1592 -4.32189 -1.10865 26.7339 -0.217817 4.32685 0.351083 8.51115 -90.0706 9.85221 0.6679 -0.193629 -1.81858 0.658725 -0.222846 -24.3551 0.695207 0.0160679 -4.34245 0.695209 0.016059 90.1432 -25.2667 -108.403 43.2535 -13.001 -7.38258 -12.9072 -11.6382 -22.7004 -11.8369 -0.0913431 -4.44116 -87.4795 -46.9679 81.9665 -20.9723 22.8062 -16.8118 4.31285 -16.8549 -6.89476 4.00415 -0.0674129 -3.95645 -3.83337 12.3949 8.23716 9.646 12.1244 6.5148 
-327.035 96.6874 305.788 -102.94 -46.2512 -100.576 -173.13 -6.15339 90.8407 -11.1575 20.8998 0.0124607 68.8016 5.50312 -0.190033 13.0187 -10.6618 6.26078 173.143 -7.37226 89.0507 -12.6199 -11.525 -1.8149 67.1049 -4.39782 -0.9748 26.5362 -0.136841 4.32666 0.587891 8.42911 -90.2449 10.0186 1.06029 -0.573719 -1.65203 1.034 -0.619837 -24.1904 1.18368 -0.228508 -4.1778 1.18369 -0.228503 93.0894 -23.7657 -102.598 45.7239 -14.5618 -6.77681 -13.7533 -13.4284 -24.0548 -12.182 -0.136805 -4.01101 -88.9812 -48.4557 79.9428 -19.6265 24.1255 -17.0577 4.26691 -15.8836 -6.52741 3.30521 -0.0939097 -4.44048 2.29587 12.72 8.31847 -2.80418 11.2812 1.96123 
-327.559 96.6295 305.784 -102.865 -46.5358 -100.197 -172.886 -5.90877 91.4657 -11.6835 21.4182 0.125532 69.3897 5.79977 -0.156272 13.0359 -10.9121 6.67448 173.195 -7.63199 89.553 -12.476 -11.4453 -1.46906 67.2659 -4.76606 -1.31636 26.5571 -0.128402 4.2617 0.799537 8.30134 -90.3498 10.2761 1.43321 -0.818143 -1.39432 1.39581 -0.880441 -23.9353 1.61282 -0.349493 -3.9226 1.61281 -0.349505 95.8053 -22.2744 -96.9282 48.479 -16.2274 -5.85444 -14.2596 -14.2942 -25.1749 -11.8642 -0.172396 -3.61707 -90.1871 -48.6756 78.1547 -19.6148 25.4351 -16.7308 4.34256 -14.1797 -6.07467 2.87473 -0.103672 -4.64519 5.92918 11.7423 8.05961 -11.0032 10.222 -2.67622 
-328.164 96.6016 305.767 -102.987 -47.4333 -99.8575 -171.927 -5.48716 92.8586 -12.264 22.8935 -0.444909 70.077 6.23056 -0.380836 12.5938 -11.0203 6.45886 173.45 -8.52189 90.352 -11.2292 -10.1682 -1.15811 66.9785 -4.68345 -1.07044 26.5629 -0.233552 4.65329 1.00929 8.20136 -90.5238 10.4802 1.77014 -1.19776 -1.19018 1.71569 -1.27451 -23.7335 2.04824 -0.610244 -3.72086 2.04822 -0.610257 98.883 -20.3915 -90.0617 51.1321 -17.9376 -5.0064 -14.9889 -15.806 -26.2499 -11.7817 -0.222826 -3.09143 -91.6501 -50.0821 76.2869 -18.0678 27.5201 -17.109 4.01174 -13.3115 -6.13314 1.73227 -0.128328 -5.42435 5.96628 9.08683 9.17185 -12.4077 7.59315 -4.93327 
-328.753 96.5873 305.906 -102.321 -48.1159 -99.4371 -171.728 -5.3294 93.2141 -11.7851 24.2088 -0.642708 69.9272 6.30609 0.0946033 13.0456 -10.9128 6.6838 173.665 -8.72798 90.6821 -10.4215 -9.213 -1.12256 66.9933 -4.51707 -0.72893 26.5127 -0.191893 4.57219 1.25271 8.09486 -90.6313 10.698 2.20411 -1.45689 -0.971991 2.13786 -1.5525 -23.52 2.54001 -0.726838 -3.50735 2.54 -0.726833 101.563 -18.2831 -83.6576 53.0235 -20.4444 -4.41374 -15.8291 -18.3918 -27.151 -12.3396 -0.215914 -3.25244 -93.0312 -51.7954 74.6808 -16.3518 29.3605 -18.1029 3.773 -11.6026 -6.00354 0.124928 -0.127923 -6.02012 6.75006 5.84565 10.5616 -13.2678 4.29335 -7.29288 
-329.294 96.5403 306.008 -101.424 -48.7681 -98.5526 -171.442 -4.76045 93.8336 -11.6923 24.8771 -0.80146 70.1849 6.44058 -0.0871562 13.4125 -10.812 6.84651 174.102 -9.06327 91.3597 -9.04485 -8.33141 -1.07353 66.7454 -4.43902 -0.657582 26.5624 -0.20071 4.52878 1.44526 7.96583 -90.6856 10.9604 2.56005 -1.60724 -0.709176 2.48684 -1.71838 -23.2621 2.92466 -0.763071 -3.24949 2.92463 -0.763081 103.536 -16.7459 -78.6066 55.0445 -21.8006 -3.70496 -16.7055 -20.0718 -28.1994 -12.2192 -0.258917 -2.81435 -93.8526 -52.0802 73.5639 -16.8322 30.1027 -17.8896 3.87726 -9.99147 -6.24777 -0.952917 -0.109578 -5.90827 7.69023 1.82006 11.3628 -14.5719 0.44413 -10.3132 
-329.78 96.5011 306.055 -100.776 -49.333 -97.8383 -171.131 -4.32671 94.4466 -11.601 25.7821 -0.989587 70.4458 6.65336 0.0612811 13.1412 -10.8666 6.69426 174.391 -9.52042 91.9149 -7.69227 -7.80515 -0.924536 66.4807 -4.41791 -0.689672 26.372 -0.107802 4.47041 1.59997 7.86629 -90.7731 11.1641 2.82538 -1.81492 -0.505261 2.74276 -1.93755 -23.0619 3.24009 -0.88126 -3.04925 3.24009 -0.881269 105.179 -14.5323 -73.9557 56.9148 -23.1444 -3.39189 -17.1425 -20.7812 -28.9475 -12.6511 -0.278386 -2.70939 -94.7617 -52.8701 72.4699 -15.9272 31.8282 -18.6765 3.19893 -10.1499 -5.02733 -0.766188 -0.125295 -6.84863 8.32915 -1.90044 12.2679 -15.1671 -3.20852 -12.3217 
-330.25 96.4549 306.066 -99.8801 -49.7684 -96.8839 -171.079 -3.78169 94.896 -11.59 26.2551 -0.889637 70.5788 6.73262 0.173999 13.6779 -10.8294 7.11073 175.147 -9.70427 92.8183 -6.49979 -6.73618 -1.13808 66.1942 -4.20765 -0.682887 26.2126 -0.111423 4.72837 1.73763 7.77289 -90.8438 11.3552 3.06436 -1.98735 -0.313902 2.97397 -2.12035 -22.8742 3.51982 -0.97374 -2.86153 3.51981 -0.973735 106.363 -12.8357 -70.3489 58.375 -24.2253 -3.08322 -18.4902 -22.3606 -30.4699 -12.6865 -0.315155 -2.36922 -95.3528 -52.8528 71.6197 -16.1238 32.3801 -18.7757 3.13703 -9.20839 -4.908 -0.924569 -0.123037 -6.94403 9.4271 -4.27644 12.7273 -16.2007 -5.46134 -13.9893 
-330.658 96.4622 306.079 -99.518 -49.9291 -96.2912 -170.798 -3.66156 95.5045 -11.4495 26.5527 -0.933944 70.7663 6.81263 -0.0241908 13.5221 -11.0036 7.25081 175.113 -9.50685 93.1926 -6.78016 -6.81357 -0.684126 66.3971 -4.58842 -1.17596 25.7371 0.0484309 4.85018 1.86594 7.72208 -90.9062 11.461 3.28924 -2.13931 -0.207744 3.19194 -2.28206 -22.7718 3.77993 -1.05091 -2.75917 3.77994 -1.05091 107.278 -11.6229 -67.4067 59.5607 -25.0502 -2.79277 -18.9902 -23.3856 -30.9528 -12.9787 -0.344372 -2.16558 -95.7427 -53.2197 71.1688 -14.6715 33.2521 -19.5749 2.71331 -9.88471 -4.6354 -0.38726 -0.124993 -6.65281 9.9087 -5.62266 12.8953 -16.5966 -6.80096 -14.1966 
-331.071 96.461 305.956 -99.5944 -50.4608 -95.958 -170.231 -3.18273 96.4833 -11.9044 27.8806 -1.25192 70.6664 6.81924 0.196005 14.1059 -10.6096 7.13879 176.157 -9.54894 94.4509 -6.86833 -5.2715 -1.10032 66.5585 -4.49882 -0.99571 24.8698 0.582506 4.2031 1.91743 7.67965 -90.982 11.5488 3.35509 -2.30158 -0.120074 3.25057 -2.44707 -22.6844 3.89148 -1.18588 -2.67176 3.89148 -1.18589 107.802 -11.0238 -65.698 60.3073 -25.6453 -2.19166 -18.8687 -23.4621 -30.9234 -12.4072 -0.270922 -2.73112 -96.2072 -53.2716 70.5248 -14.2607 33.4751 -20.0679 2.66729 -9.68387 -4.37337 -0.832038 -0.129666 -7.31749 10.065 -5.89001 13.5057 -17.2382 -7.04072 -15.0331 
